<svg xmlns:dc="http://purl.org/dc/elements/1.1/" xmlns:cc="http://creativecommons.org/ns#" xmlns:rdf="http://www.w3.org/1999/02/22-rdf-syntax-ns#" xmlns:svg="http://www.w3.org/2000/svg" xmlns="http://www.w3.org/2000/svg" xmlns:sodipodi="http://sodipodi.sourceforge.net/DTD/sodipodi-0.dtd" xmlns:inkscape="http://www.inkscape.org/namespaces/inkscape" version="1.1" viewBox="0 0 24 30" x="0px" y="0px"><g transform="translate(0,-24)"><path style="color:#000000;clip-rule:nonzero;display:inline;overflow:visible;visibility:visible;opacity:1;isolation:auto;mix-blend-mode:normal;color-interpolation:sRGB;color-interpolation-filters:linearRGB;solid-color:#000000;solid-opacity:1;fill:#000000;fill-opacity:1;fill-rule:nonzero;stroke:none;stroke-width:1;stroke-linecap:butt;stroke-linejoin:miter;stroke-miterlimit:4;stroke-dasharray:none;stroke-dashoffset:0;stroke-opacity:1;marker:none;color-rendering:auto;image-rendering:auto;shape-rendering:auto;text-rendering:auto;enable-background:accumulate" d="M 4 4 C 2.892 4 2 4.892 2 6 L 2 18 C 2 19.108 2.892 20 4 20 L 20 20 C 21.108 20 22 19.108 22 18 L 22 6 C 22 4.892 21.108 4 20 4 L 4 4 z M 4 6 L 20 6 L 20 18 L 4 18 L 4 6 z M 7.4140625 8 L 6 9.4140625 L 8.1210938 11.535156 L 6 13.65625 L 7.4140625 15.070312 L 10.949219 11.535156 L 7.4140625 8 z M 13 13.070312 L 13 15.070312 L 18 15.070312 L 18 13.070312 L 13 13.070312 z " transform="translate(0,24)"/></g><text x="0" y="39" fill="#000000" font-size="5px" font-weight="bold" font-family="'Helvetica Neue', Helvetica, Arial-Unicode, Arial, Sans-serif">Created by Vignesh Nandha Kumar</text><text x="0" y="44" fill="#000000" font-size="5px" font-weight="bold" font-family="'Helvetica Neue', Helvetica, Arial-Unicode, Arial, Sans-serif">from the Noun Project</text></svg>